<svg width="32" height="32" viewBox="0 0 32 32" fill="none" xmlns="http://www.w3.org/2000/svg">
<circle cx="16" cy="16" r="15.5" stroke="#DCE0E2" stroke-opacity="0.4"/>
<path d="M20.8094 13H11.875C11.6678 13 11.5 12.8322 11.5 12.625C11.5 12.4178 11.6678 12.25 11.875 12.25H20.875C21.0822 12.25 21.25 12.0822 21.25 11.875C21.25 11.2537 20.7463 10.75 20.125 10.75H11.5C10.6715 10.75 10 11.4215 10 12.25V19.75C10 20.5785 10.6715 21.25 11.5 21.25H20.8094C21.4661 21.25 22 20.7454 22 20.125V14.125C22 13.5046 21.4661 13 20.8094 13ZM19.75 17.875C19.3359 17.875 19 17.5391 19 17.125C19 16.7109 19.3359 16.375 19.75 16.375C20.1641 16.375 20.5 16.7109 20.5 17.125C20.5 17.5391 20.1641 17.875 19.75 17.875Z" fill="#DCE0E2"/>
</svg>
