<svg width="14" height="24" viewBox="0 0 14 24" fill="none" xmlns="http://www.w3.org/2000/svg">
<path d="M10.0562 10.9406L4.99369 9.45938C4.40775 9.29063 3.99994 8.74219 3.99994 8.13281C3.99994 7.36875 4.61869 6.75 5.38275 6.75H8.49057C9.06244 6.75 9.62494 6.92344 10.0937 7.24219C10.3796 7.43437 10.764 7.3875 11.0078 7.14844L12.639 5.55469C12.9718 5.23125 12.9249 4.69219 12.5546 4.40625C11.4062 3.50625 9.97182 3.00469 8.49994 3V0.75C8.49994 0.3375 8.16244 0 7.74994 0H6.24994C5.83744 0 5.49994 0.3375 5.49994 0.75V3H5.38275C2.39682 3 -0.0031848 5.56406 0.273378 8.60625C0.470253 10.7672 2.12025 12.525 4.2015 13.1344L9.00619 14.5406C9.59213 14.7141 9.99994 15.2578 9.99994 15.8672C9.99994 16.6313 9.38119 17.25 8.61713 17.25H5.50932C4.93744 17.25 4.37494 17.0766 3.90619 16.7578C3.62025 16.5656 3.23588 16.6125 2.99213 16.8516L1.36088 18.4453C1.02807 18.7687 1.07494 19.3078 1.44525 19.5938C2.59369 20.4937 4.02807 20.9953 5.49994 21V23.25C5.49994 23.6625 5.83744 24 6.24994 24H7.74994C8.16244 24 8.49994 23.6625 8.49994 23.25V20.9906C10.6843 20.9484 12.7328 19.65 13.4546 17.5828C14.4624 14.6953 12.7703 11.7328 10.0562 10.9406Z" fill="#868C90"/>
</svg>
