<svg width="14" height="22" viewBox="0 0 14 22" fill="none" xmlns="http://www.w3.org/2000/svg">
<path fill-rule="evenodd" clip-rule="evenodd" d="M0.600006 9.20703V14.5817H4.65855C4.71891 14.2406 4.85419 13.9224 5.04567 13.6478L0.600006 9.20703Z" fill="#35BAEB"/>
<path fill-rule="evenodd" clip-rule="evenodd" d="M0.600006 0.599976V8.01102L5.643 13.0509C5.91773 12.8595 6.23408 12.7264 6.5775 12.664V6.01837L0.600006 0.599976Z" fill="#35BAEB"/>
<path fill-rule="evenodd" clip-rule="evenodd" d="M11.2271 10.1846C10.1969 9.28188 8.87732 8.70573 7.42458 8.61005V12.664C7.76799 12.7243 8.08436 12.8595 8.35909 13.0508L11.2271 10.1846Z" fill="#35BAEB"/>
<path fill-rule="evenodd" clip-rule="evenodd" d="M11.8245 10.7816L8.95645 13.6479C9.14793 13.9224 9.28321 14.2386 9.34357 14.5818H13.4C13.3043 13.1299 12.7278 11.8112 11.8245 10.7816Z" fill="#35BAEB"/>
<path fill-rule="evenodd" clip-rule="evenodd" d="M5.04569 16.3601C4.85421 16.0856 4.71893 15.7694 4.65857 15.4262H0.602112C0.69577 16.878 1.27437 18.1968 2.17766 19.2264L5.04569 16.3601Z" fill="#35BAEB"/>
<path fill-rule="evenodd" clip-rule="evenodd" d="M2.77505 19.8254C3.8053 20.7281 5.12483 21.3043 6.57758 21.4V17.3461C6.23625 17.2857 5.91781 17.1505 5.64308 16.9592L2.77505 19.8254Z" fill="#35BAEB"/>
<path fill-rule="evenodd" clip-rule="evenodd" d="M11.8245 19.2284C12.7278 18.1988 13.3043 16.8801 13.4 15.4283H9.34357C9.28113 15.7694 9.14793 16.0876 8.95645 16.3622L11.8245 19.2284Z" fill="#35BAEB"/>
<path fill-rule="evenodd" clip-rule="evenodd" d="M8.35703 16.9592C8.0823 17.1505 7.76595 17.2857 7.42253 17.3461V21.4C8.87528 21.3043 10.1969 20.7281 11.2251 19.8254L8.35703 16.9592Z" fill="#35BAEB"/>
</svg>
