<svg width="22" height="22" viewBox="0 0 22 22" fill="none" xmlns="http://www.w3.org/2000/svg">
<path d="M2.1234 12.5703L1.08102 11.5297C0.639659 11.0891 0.639659 10.3766 1.08102 9.94064L10.2041 0.828149C10.6455 0.387525 11.3592 0.387525 11.7959 0.828149L20.919 9.93596C21.3603 10.3766 21.3603 11.0891 20.919 11.525L19.8766 12.5656C19.4305 13.011 18.7028 13.0016 18.2661 12.5469L12.8805 6.90315V20.375C12.8805 20.9984 12.3781 21.5 11.7536 21.5H10.2511C9.6266 21.5 9.1242 20.9984 9.1242 20.375V6.90315L3.73391 12.5516C3.29724 13.011 2.56946 13.0203 2.1234 12.5703Z" fill="#26DE81" fill-opacity="0.6"/>
</svg>
