<svg width="12" height="14" viewBox="0 0 12 14" fill="none" xmlns="http://www.w3.org/2000/svg">
<path d="M5.46879 7.00937L1.21879 2.75938C0.925037 2.46563 0.925037 1.99063 1.21879 1.7L1.92504 0.99375C2.21879 0.7 2.69379 0.7 2.98441 0.99375L5.99691 4.00625L9.00941 0.99375C9.30316 0.7 9.77816 0.7 10.0688 0.99375L10.7813 1.69688C11.075 1.99063 11.075 2.46562 10.7813 2.75625L6.53129 7.00625C6.23754 7.30313 5.76254 7.30312 5.46879 7.00937ZM6.53129 13.0094L10.7813 8.75937C11.075 8.46562 11.075 7.99062 10.7813 7.7L10.075 6.99375C9.78129 6.7 9.30629 6.7 9.01566 6.99375L6.00004 10.0031L2.98754 6.99062C2.69379 6.69688 2.21879 6.69688 1.92816 6.99062L1.21879 7.69687C0.925037 7.99062 0.925037 8.46563 1.21879 8.75625L5.46879 13.0063C5.76254 13.3031 6.23754 13.3031 6.53129 13.0094Z" fill="#FC5C65"/>
</svg>
