<svg width="16" height="22" viewBox="0 0 16 22" fill="none" xmlns="http://www.w3.org/2000/svg">
<path d="M12.6676 10.2346C15.741 8.02148 14.2414 3.7346 9.62513 3.71172V0.600037H7.79222V3.70964H6.45507V0.600037H4.62216V3.70964H0.799988V5.77092H2.52182C2.94559 5.77092 3.20684 6.13492 3.20684 6.37204L3.20684 15.5116C3.20684 15.7487 2.94559 16.1127 2.52182 16.1127H0.799988V18.174H4.6201V21.4H6.45302V18.1719H7.79016V21.4H9.62307V18.1719C14.9079 18.1719 15.2 15.4076 15.2 13.8164C15.2 10.7317 12.6676 10.2346 12.6676 10.2346ZM6.45713 5.83956H8.02262C8.74262 5.83956 10.6743 6.00804 10.6743 7.66164C10.6743 9.51908 9.23222 9.76244 8.74879 9.76244H6.45713V5.83956ZM8.74879 15.9421H6.45713V11.7031H8.40525C9.96456 11.7031 11.6144 11.9464 11.6144 13.6437C11.6123 15.5032 10.0098 15.9421 8.74879 15.9421Z" fill="#F2911B"/>
</svg>
