<svg width="12" height="14" viewBox="0 0 12 14" fill="none" xmlns="http://www.w3.org/2000/svg">
<path d="M6.53129 6.99064L10.7813 11.2406C11.075 11.5344 11.075 12.0094 10.7813 12.3L10.075 13.0063C9.78129 13.3 9.30629 13.3 9.01566 13.0063L6.00004 9.99689L2.98754 13.0094C2.69379 13.3031 2.21879 13.3031 1.92816 13.0094L1.21879 12.3031C0.925037 12.0094 0.925037 11.5344 1.21879 11.2438L5.46879 6.99376C5.76254 6.69689 6.23754 6.69689 6.53129 6.99064ZM5.46879 0.990637L1.21879 5.24064C0.925037 5.53439 0.925037 6.00939 1.21879 6.30001L1.92504 7.00626C2.21879 7.30001 2.69379 7.30001 2.98441 7.00626L5.99691 3.99376L9.00941 7.00626C9.30316 7.30001 9.77816 7.30001 10.0688 7.00626L10.775 6.30001C11.0688 6.00626 11.0688 5.53126 10.775 5.24064L6.52504 0.990637C6.23754 0.696887 5.76254 0.696887 5.46879 0.990637Z" fill="#26DE81"/>
</svg>
